<svg xmlns="http://www.w3.org/2000/svg" viewBox="0 0 139.97 132.08"><defs><style>.cls-1{fill:#e4dfbf;}.cls-2{fill:#fdf4d7;}.cls-3{fill:#91ba80;}.cls-4{fill:#4c6637;}.cls-5{fill:#f6352c;}</style></defs><title>Asset 161</title><g id="Layer_2" data-name="Layer 2"><g id="Layer_1-2" data-name="Layer 1"><path class="cls-1" d="M48.75,28.93C48.64,28.06,54,13.21,36.09,0l.65,15.18Z"/><path class="cls-2" d="M5,9.5,26.17,3.28A47.72,47.72,0,0,1,49.42,25.55S72.35,10,105.44,7.64L116.9,19.22,43,35.81Z"/><path class="cls-3" d="M0,5.24,45.07,30.9s7.94.9,10.31-3l62.89-12L140,107.22,79.05,130.36s-10.48,5.24-15.94-2.62L22.49,113.55Z"/><path class="cls-4" d="M62.72,127a.77.77,0,0,1-.74-.6L42.77,32.91a.74.74,0,0,1,.58-.89.77.77,0,0,1,.89.58l19.21,93.46a.74.74,0,0,1-.58.89Z"/><path class="cls-4" d="M78.22,129.15a.75.75,0,0,1-.73-.58L54.78,32.93a.77.77,0,0,1,.56-.91.75.75,0,0,1,.9.56L79,128.22a.75.75,0,0,1-.55.91Z"/><path class="cls-5" d="M111.65,61.2c3.44,10.26,3.79,25.35-9.7,28.39-8.72,2-18.23-7.88-21.67-18.15s.11-20.7,7.92-23.31S108.22,50.93,111.65,61.2Z"/></g></g></svg>