<svg xmlns="http://www.w3.org/2000/svg" viewBox="0 0 223.46 97.2"><defs><style>.cls-1{fill:#903c7a;}.cls-2{fill:#e4dfbf;}.cls-3{fill:#fdf4d7;}</style></defs><title>Asset 41</title><g id="Layer_2" data-name="Layer 2"><g id="Layer_1-2" data-name="Layer 1"><path class="cls-1" d="M211.74,97.2A160.3,160.3,0,0,0,166,88.65,141.69,141.69,0,0,0,130.42,92a84.41,84.41,0,0,1-36.18,0,147.88,147.88,0,0,0-34-3.27A165.61,165.61,0,0,0,11.72,97.2C3.48,97.2-1.55,91.41.43,84.51L21.21,11.82C22.48,7.4,28.61,3.9,34.94,3.9l77.63,10.57,76-10.57c6.33,0,12.46,3.5,13.73,7.92L223,84.51C225,91.41,220,97.2,211.74,97.2Z"/><path class="cls-2" d="M198.37,11.54l21.91,80c-6.66-4.28-28.19-17.26-55.19-17.59a84.24,84.24,0,0,0-52.47,17.59c-5-3.87-27.45-20.57-59.73-17.59C30.32,76,12.51,86.57,5,91.51l21.55-80A95.44,95.44,0,0,1,64.34.23a81,81,0,0,1,48.1,11.31C116.68,8.89,131.94,0,154.71.23A97.25,97.25,0,0,1,198.37,11.54Z"/><path class="cls-3" d="M196.38,11.25l20.74,77.4c-6.43-4.11-27.26-16.62-53.5-16.93a82.28,82.28,0,0,0-51,16.93c-4.83-3.72-26.7-19.81-58.06-16.93-21.93,2-39.17,12.18-46.43,16.93l20.39-77.4A93,93,0,0,1,65.41.23a79.32,79.32,0,0,1,47,11C116.58,8.67,131.5,0,153.77.23A94.88,94.88,0,0,1,196.38,11.25Z"/><path class="cls-2" d="M109.4,67.64A85.73,85.73,0,0,0,67.76,54.7c-17.05-.65-35.15,4.13-50.92,12.94C31.32,58.55,48.6,53.39,64.92,53.51A77,77,0,0,1,109.4,67.64Z"/><path class="cls-2" d="M109.44,59.77A85.35,85.35,0,0,0,68.66,47.36c-16.7-.63-34.41,4-49.82,12.41,14.14-8.72,31-13.67,47-13.55a76.49,76.49,0,0,1,43.57,13.55Z"/><path class="cls-2" d="M109.49,52.22a84.84,84.84,0,0,0-40-11.9c-16.37-.61-33.7,3.8-48.75,11.9a89.62,89.62,0,0,1,46-13,76.13,76.13,0,0,1,42.7,13Z"/><path class="cls-2" d="M109.54,45A84.44,84.44,0,0,0,70.35,33.55C54.3,33,37.32,37.2,22.61,45A88.88,88.88,0,0,1,67.67,32.49,75.79,75.79,0,0,1,109.54,45Z"/><path class="cls-2" d="M109.58,38A84.05,84.05,0,0,0,71.15,27c-15.75-.56-32.38,3.51-46.77,11A88.23,88.23,0,0,1,68.51,26a75.46,75.46,0,0,1,41.07,12Z"/><path class="cls-2" d="M109.62,31.35A83.88,83.88,0,0,0,71.91,20.77,95.58,95.58,0,0,0,26.09,31.35,87.43,87.43,0,0,1,69.32,19.8c14.77,0,29.19,4.3,40.3,11.55Z"/><path class="cls-2" d="M109.66,24.92a83.52,83.52,0,0,0-37-10.18A95,95,0,0,0,27.72,24.92,87,87,0,0,1,70.11,13.8c14.49,0,28.65,4.15,39.55,11.12Z"/><path class="cls-2" d="M109.7,18.74A83.19,83.19,0,0,0,73.36,8.93,94.37,94.37,0,0,0,29.3,18.74,86.39,86.39,0,0,1,70.86,8C85.09,8,99,12,109.7,18.74Z"/><path class="cls-2" d="M209.5,67.64c-14.15-7.59-29.87-12.3-45.11-12.94a81.46,81.46,0,0,0-47.45,12.94c12-9.09,27.93-14.25,44.29-14.13s33.6,5.25,48.27,14.13Z"/><path class="cls-2" d="M207.43,59.77C193.62,52.5,178.24,48,163.31,47.36a81,81,0,0,0-46.48,12.41c11.79-8.72,27.36-13.67,43.39-13.55s32.9,5,47.21,13.55Z"/><path class="cls-2" d="M205.45,52.22c-13.49-7-28.54-11.31-43.17-11.9a80.69,80.69,0,0,0-45.55,11.9c11.55-8.36,26.82-13.11,42.52-13s32.22,4.84,46.2,13Z"/><path class="cls-2" d="M203.55,45a103.75,103.75,0,0,0-42.26-11.43A80.4,80.4,0,0,0,116.62,45c11.33-8,26.3-12.6,41.7-12.49S189.89,37.14,203.55,45Z"/><path class="cls-2" d="M201.72,38a103,103,0,0,0-41.38-11,80.13,80.13,0,0,0-43.81,11c11.11-7.72,25.8-12.11,40.9-12a92.68,92.68,0,0,1,44.29,12Z"/><path class="cls-2" d="M200,31.35a102.5,102.5,0,0,0-40.55-10.58,80,80,0,0,0-43,10.58c10.91-7.43,25.32-11.65,40.14-11.55A91.8,91.8,0,0,1,200,31.35Z"/><path class="cls-2" d="M198.28,24.92a101.71,101.71,0,0,0-39.74-10.18,79.7,79.7,0,0,0-42.2,10.18c10.7-7.14,24.86-11.21,39.4-11.12a91.39,91.39,0,0,1,42.54,11.12Z"/><path class="cls-2" d="M196.66,18.74a101.08,101.08,0,0,0-39-9.81c-15-.5-29.73,3.14-41.42,9.81,10.5-6.88,24.4-10.81,38.68-10.72a90.71,90.71,0,0,1,41.72,10.72Z"/><polygon class="cls-2" points="113.07 88.65 112.17 88.65 112.08 11.25 112.81 11.25 113.07 88.65"/></g></g></svg>