<svg xmlns="http://www.w3.org/2000/svg" viewBox="0 0 182.18 165.45"><defs><style>.cls-1{fill:#309084;}.cls-2{fill:#fdf4d7;}.cls-3{fill:#42c9b8;}.cls-4{fill:#e4c141;}.cls-5{fill:#4c6637;}.cls-6{fill:#91ba80;}</style></defs><title>Asset 81</title><g id="Layer_2" data-name="Layer 2"><g id="Layer_1-2" data-name="Layer 1"><path class="cls-1" d="M0,91.11v17.28l67.7,55.76a5.69,5.69,0,0,0,8.08-.85l78-98.33a5.69,5.69,0,0,0-.78-7.88L88.59,9.88Z"/><path class="cls-2" d="M3.15,91.67v16.24l66.43,52.32a2.51,2.51,0,0,0,3.5-.39L150.7,64.13c1.42-2-1.09-9.61-2.06-10.35l-15.91-8.51L37.05,62.14Z"/><path class="cls-3" d="M0,90.74,82,0l64.57,47.53a8.2,8.2,0,0,1,1.54,11.1L78.7,146.13a8.2,8.2,0,0,1-11.79,1.7Z"/><rect class="cls-1" x="70.35" y="38.27" width="58.46" height="13.99" transform="translate(48.26 -51.33) rotate(37.57)"/><polygon class="cls-4" points="88.21 107 40.5 69.44 66.5 40.33 112.83 75.98 88.21 107"/><path class="cls-5" d="M27.15,91.11v17.28l67.7,55.76a5.69,5.69,0,0,0,8.08-.85l78-98.33a5.69,5.69,0,0,0-.78-7.88L115.74,9.88Z"/><path class="cls-2" d="M30.3,91.67v16.24l66.43,52.32a2.51,2.51,0,0,0,3.5-.39l77.62-95.71c1.42-2-1.09-9.61-2.06-10.35l-15.9-8.51L64.21,62.14Z"/><path class="cls-6" d="M27.15,90.74,109.16,0l64.57,47.53a8.22,8.22,0,0,1,1.54,11.1l-69.41,87.5a8.2,8.2,0,0,1-11.79,1.7Z"/><rect class="cls-5" x="119.74" y="16.04" width="13.99" height="58.46" transform="translate(13.58 118.11) rotate(-52.43)"/><polygon class="cls-4" points="115.36 107 67.65 69.44 93.66 40.33 139.99 75.98 115.36 107"/></g></g></svg>