<svg xmlns="http://www.w3.org/2000/svg" viewBox="0 0 140.77 155.63"><defs><style>.cls-1{fill:#f6352c;}.cls-2{fill:#c60508;}.cls-3{fill:#fdf4d7;}.cls-4{fill:#e4dfbf;}</style></defs><title>Asset 151</title><g id="Layer_2" data-name="Layer 2"><g id="Layer_1-2" data-name="Layer 1"><rect class="cls-1" x="38.59" y="10.14" width="82.31" height="130.42" transform="translate(-20.96 31.82) rotate(-20)"/><path class="cls-2" d="M62.78,121.46a7.08,7.08,0,0,1-6.66-4.66L27.32,37.66a7.1,7.1,0,0,1,4.23-9.08l55.05-20a7.09,7.09,0,0,1,9.08,4.24l28.8,79.13a7.07,7.07,0,0,1-4.23,9.08l-55,20A7,7,0,0,1,62.78,121.46ZM32.37,30.83a4.69,4.69,0,0,0-2.8,6L58.37,116a4.7,4.7,0,0,0,6,2.81l55-20a4.69,4.69,0,0,0,2.81-6L93.43,13.6a4.67,4.67,0,0,0-6-2.8Z"/><path class="cls-2" d="M63.06,150.9l-9.67,3.52a13.36,13.36,0,0,1-17.12-8L.81,49a13.36,13.36,0,0,1,8-17.12l9.67-3.51Z"/><path class="cls-2" d="M140.77,122.69,52.3,154.89a12.11,12.11,0,0,1-15.53-7.24l0-.1A12.12,12.12,0,0,1,44,132l88.47-32.2Z"/><path class="cls-3" d="M140,120.44l-88.5,32.21a9.78,9.78,0,0,1-3.33.59,9.64,9.64,0,0,1-3.78-.77,10,10,0,0,1-1.73-.95A10.53,10.53,0,0,1,40.14,149a9.22,9.22,0,0,1-.86-1.54c-.09-.2-.18-.42-.26-.63a7.41,7.41,0,0,1-.24-.76,9.69,9.69,0,0,1-.33-1.74,9,9,0,0,1,0-1.56,9.59,9.59,0,0,1,.35-2,8.66,8.66,0,0,1,.55-1.52c0-.1.11-.21.16-.32a9.58,9.58,0,0,1,5.32-4.69l88.52-32.23.89,2.45.5,1.39.6,1.64.5,1.38.59,1.64.51,1.39.59,1.64L138,115l.6,1.64.5,1.39Z"/><path class="cls-4" d="M134.7,105.89,38.76,140.81a8.66,8.66,0,0,1,.55-1.52c0-.1.11-.21.16-.32L134.2,104.5Z"/><path class="cls-4" d="M135.3,107.53,38.41,142.79a9,9,0,0,0,0,1.55l97.35-35.43Z"/><path class="cls-4" d="M136.9,111.94,39.28,147.47c-.09-.2-.18-.42-.26-.63a7.41,7.41,0,0,1-.24-.76l97.61-35.53Z"/><path class="cls-4" d="M138,115,41.14,150.22a8.93,8.93,0,0,1-1-1.21l97.35-35.43Z"/><path class="cls-4" d="M139.09,118,44.38,152.47a10,10,0,0,1-1.73-.95l95.94-34.92Z"/></g></g></svg>