<svg xmlns="http://www.w3.org/2000/svg" viewBox="0 0 205 124.6"><defs><style>.cls-1{fill:#fbc628;}.cls-2{fill:#fdf4d7;}.cls-3{fill:#e4dfbf;}.cls-4{fill:#42c9b8;}</style></defs><title>Asset 191</title><g id="Layer_2" data-name="Layer 2"><g id="Layer_1-2" data-name="Layer 1"><path class="cls-1" d="M201.12,109H3.87a3.88,3.88,0,0,1-3.82-4.51L15.61,11.1a3.86,3.86,0,0,1,3.81-3.24H185.57a3.88,3.88,0,0,1,3.82,3.24l15.55,93.35A3.87,3.87,0,0,1,201.12,109Z"/><path class="cls-2" d="M194,105.26a354.55,354.55,0,0,0-44.27-5.08c-17.48-.9-33,2.6-47.24,5.08-15.12-2.71-31.07-5.63-49-4.61a397.72,397.72,0,0,0-41.91,4.61,5.79,5.79,0,0,1-4.27-2A5.6,5.6,0,0,1,6,98.75L19.93,10.93a5.61,5.61,0,0,1,5.55-4.74,126.32,126.32,0,0,1,77.59,0,122.55,122.55,0,0,1,77,0,5.62,5.62,0,0,1,5.55,4.74l14,87.82A5.63,5.63,0,0,1,194,105.26Z"/><polygon class="cls-3" points="103.18 100.89 101.81 100.89 101.92 10.56 103.07 10.56 103.18 100.89"/><polygon class="cls-3" points="93.56 43.3 21.86 43.3 26.33 12.63 94.05 12.63 93.56 43.3"/><polygon class="cls-3" points="191.31 92.41 112.69 92.41 112.08 55.72 185.95 55.72 191.31 92.41"/><polygon class="cls-3" points="93.4 53.32 20.4 53.32 20.55 52.31 93.41 52.31 93.4 53.32"/><polygon class="cls-3" points="93.29 59.86 19.45 59.86 19.6 58.83 93.31 58.83 93.29 59.86"/><polygon class="cls-3" points="93.18 66.56 18.48 66.56 18.63 65.5 93.2 65.5 93.18 66.56"/><polygon class="cls-3" points="93.07 73.41 17.48 73.41 17.64 72.33 93.09 72.33 93.07 73.41"/><polygon class="cls-3" points="92.96 80.43 16.46 80.43 16.62 79.32 92.98 79.32 92.96 80.43"/><polygon class="cls-3" points="92.84 87.62 15.41 87.62 15.57 86.49 92.86 86.49 92.84 87.62"/><polygon class="cls-3" points="92.72 94.99 14.34 94.99 14.51 93.83 92.74 93.83 92.72 94.99"/><polygon class="cls-3" points="179.13 13.5 111.29 13.5 111.28 12.63 179 12.63 179.13 13.5"/><polygon class="cls-3" points="179.96 19.14 111.39 19.14 111.37 18.25 179.83 18.25 179.96 19.14"/><polygon class="cls-3" points="180.8 24.91 111.49 24.91 111.47 24 180.67 24 180.8 24.91"/><polygon class="cls-3" points="181.66 30.81 111.58 30.81 111.57 29.88 181.53 29.88 181.66 30.81"/><polygon class="cls-3" points="182.54 36.83 111.69 36.83 111.67 35.88 182.41 35.88 182.54 36.83"/><polygon class="cls-3" points="183.44 43 111.79 43 111.77 42.02 183.3 42.02 183.44 43"/><polygon class="cls-3" points="184.37 49.3 111.89 49.3 111.88 48.31 184.22 48.31 184.37 49.3"/><path class="cls-4" d="M138,52.82c-20,25.21-1.87,57.67,9.86,67.16a18.27,18.27,0,0,1-8.09-4.23l3.56,8.85c-15-12.26-32.53-47.52-10.64-74.63a27.27,27.27,0,0,0,4-6.67c5.55-13.17-3.44-27-14.39-34.81a14.17,14.17,0,0,0-6-2.64,15.59,15.59,0,0,0-7.09.34h-6.1c1.75-3.88,9-5.22,14.19-4.46a20.66,20.66,0,0,1,8.93,3.73C141.33,16.15,148,31.63,142.55,45.05A32,32,0,0,1,138,52.82Z"/></g></g></svg>