<svg xmlns="http://www.w3.org/2000/svg" viewBox="0 0 117.89 143.25"><defs><style>.cls-1{fill:#42c9b8;}.cls-2{fill:#309084;}.cls-3{fill:#fdf4d7;}.cls-4{fill:#e4dfbf;}</style></defs><title>Asset 141</title><g id="Layer_2" data-name="Layer 2"><g id="Layer_1-2" data-name="Layer 1"><rect class="cls-1" x="27.54" width="90.3" height="143.09"/><path class="cls-2" d="M27.54,143.17H16.26A14.66,14.66,0,0,1,1.6,128.51V14.76A14.65,14.65,0,0,1,16.26.11H27.54Z"/><path class="cls-1" d="M1.2,24.51A1.19,1.19,0,0,1,0,23.32,15.88,15.88,0,0,1,15.85,7.46H27.13a1.2,1.2,0,0,1,0,2.4H15.85A13.48,13.48,0,0,0,2.39,23.32,1.19,1.19,0,0,1,1.2,24.51Z"/><path class="cls-1" d="M1.2,44A1.2,1.2,0,0,1,0,42.82,15.87,15.87,0,0,1,15.85,27H27.13a1.2,1.2,0,1,1,0,2.39H15.85A13.48,13.48,0,0,0,2.39,42.82,1.19,1.19,0,0,1,1.2,44Z"/><path class="cls-1" d="M1.2,63.52A1.2,1.2,0,0,1,0,62.32,15.87,15.87,0,0,1,15.85,46.47H27.13a1.2,1.2,0,1,1,0,2.39H15.85A13.48,13.48,0,0,0,2.39,62.32,1.19,1.19,0,0,1,1.2,63.52Z"/><path class="cls-1" d="M1.2,83A1.2,1.2,0,0,1,0,81.82,15.87,15.87,0,0,1,15.85,66H27.13a1.2,1.2,0,1,1,0,2.39H15.85A13.48,13.48,0,0,0,2.39,81.82,1.19,1.19,0,0,1,1.2,83Z"/><path class="cls-1" d="M1.2,102.52a1.2,1.2,0,0,1-1.2-1.2A15.87,15.87,0,0,1,15.85,85.47H27.13a1.2,1.2,0,1,1,0,2.39H15.85A13.48,13.48,0,0,0,2.39,101.32,1.19,1.19,0,0,1,1.2,102.52Z"/><path class="cls-1" d="M1.2,122a1.2,1.2,0,0,1-1.2-1.2A15.87,15.87,0,0,1,15.85,105H27.13a1.2,1.2,0,0,1,0,2.4H15.85A13.47,13.47,0,0,0,2.39,120.82,1.19,1.19,0,0,1,1.2,122Z"/><path class="cls-2" d="M117.84,143.25H14.55A13.29,13.29,0,0,1,1.26,130v-.11a13.29,13.29,0,0,1,13.29-13.29H117.84Z"/><path class="cls-3" d="M117.88,140.63H14.55A10.5,10.5,0,0,1,10.9,140a10.61,10.61,0,0,1-3.61-2.22,9.88,9.88,0,0,1-1.42-1.62,10.9,10.9,0,0,1-1.08-1.91,10,10,0,0,1-.57-1.62,10.87,10.87,0,0,1-.31-1.91c0-.25,0-.5,0-.75s0-.58,0-.87a10,10,0,0,1,.31-1.92,9.06,9.06,0,0,1,.54-1.62,10,10,0,0,1,1.1-1.9A9.23,9.23,0,0,1,7,122.29L7.3,122a10.57,10.57,0,0,1,7.25-2.85H117.89v21.46Z"/><path class="cls-4" d="M117.89,123.65H5.87A9.23,9.23,0,0,1,7,122.29L7.3,122H117.89Z"/><path class="cls-4" d="M117.89,125.56H4.77a9.06,9.06,0,0,0-.54,1.62H117.89Z"/><path class="cls-4" d="M117.89,130.71H3.91c0-.25,0-.5,0-.75s0-.58,0-.87h114Z"/><path class="cls-4" d="M117.87,134.23H4.79a10,10,0,0,1-.57-1.62H117.88Z"/><path class="cls-4" d="M117.87,137.76H7.29a9.88,9.88,0,0,1-1.42-1.62h112Z"/><rect class="cls-2" x="37.71" y="7.99" width="73.48" height="6.27"/><rect class="cls-2" x="37.71" y="23.31" width="73.48" height="23.68"/></g></g></svg>