<svg xmlns="http://www.w3.org/2000/svg" viewBox="0 0 203.31 176.5"><defs><style>.cls-1{fill:#fdf4d7;}.cls-2{fill:#e4dfbf;}.cls-3{fill:#91ba80;}.cls-4{fill:#4c6637;}</style></defs><title>Asset 11</title><g id="Layer_2" data-name="Layer 2"><g id="Layer_1-2" data-name="Layer 1"><path class="cls-1" d="M0,61.23,12.13,72.85,169.71,19l4.21-19s-42,7.46-84.1,38.74C89.82,38.74,33,36.1,0,61.23Z"/><path class="cls-2" d="M1.2,64.64,13.34,76.27,170.91,22.44l4.21-19s-42.88,4.86-85,36.14C90.11,39.55,34.16,39.52,1.2,64.64Z"/><path class="cls-1" d="M2.29,67.73,14.42,79.36,172,25.53l4.21-19s-43.57,2.91-85.7,34.19C90.51,40.69,35.25,42.6,2.29,67.73Z"/><path class="cls-3" d="M38.6,55.72a123.92,123.92,0,0,0-32,16.74,6.13,6.13,0,0,0-1.91,7.62L49.49,173a6.12,6.12,0,0,0,8.8,2.52A124.52,124.52,0,0,1,84,163a129.18,129.18,0,0,1,35.4-7.12L79.93,48.34A130.69,130.69,0,0,0,38.6,55.72Z"/><path class="cls-3" d="M138.15,20.67a130.8,130.8,0,0,0-36.84,20.14l36.6,108.6A128.77,128.77,0,0,1,170,132.78a123.68,123.68,0,0,1,27.91-6.37,6.13,6.13,0,0,0,5.28-7.48L179.82,18.44a6.14,6.14,0,0,0-6.26-4.75A124.19,124.19,0,0,0,138.15,20.67Z"/><path class="cls-4" d="M142,30.49a110.06,110.06,0,0,0-30.9,16.89l30.7,91.08a108,108,0,0,1,26.88-13.94,103.72,103.72,0,0,1,23.41-5.35,5.14,5.14,0,0,0,4.43-6.27L176.91,28.62a5.13,5.13,0,0,0-5.25-4A104.07,104.07,0,0,0,142,30.49Z"/><path class="cls-4" d="M77.82,50.08A19.63,19.63,0,0,1,104,40.7l36.44,108.71a24.31,24.31,0,0,0-22.91,9.11Q97.67,104.3,77.82,50.08Z"/><path class="cls-4" d="M42.22,67.49A94.91,94.91,0,0,0,17.06,80.82,5,5,0,0,0,15.6,87l36.17,75.75a4.85,4.85,0,0,0,7,2.12A94.73,94.73,0,0,1,79,154.9a98.62,98.62,0,0,1,28-5.49L74.86,61.83A100.42,100.42,0,0,0,42.22,67.49Z"/></g></g></svg>