<svg xmlns="http://www.w3.org/2000/svg" xmlns:xlink="http://www.w3.org/1999/xlink" viewBox="0 0 168.43 203.76"><defs><style>.cls-1{fill:none;}.cls-2{fill:#fbc628;}.cls-3{fill:#903c7a;}.cls-4{fill:#fdf4d7;}.cls-5{clip-path:url(#clip-path);}.cls-6{fill:#e4dfbf;}.cls-7{fill:#5c2e3b;}.cls-8{fill:#c60508;}</style><clipPath id="clip-path"><polygon class="cls-1" points="17.41 75.09 75.6 24.12 117.2 39.31 24.56 75.09 17.41 75.09"/></clipPath></defs><title>Asset 31</title><g id="Layer_2" data-name="Layer 2"><g id="Layer_1-2" data-name="Layer 1"><rect class="cls-2" x="46.01" y="52.27" width="100.97" height="137.93" transform="translate(-37.2 42.9) rotate(-21.12)"/><polygon class="cls-3" points="24.56 75.09 74.24 203.75 64.51 203.75 15.69 75.09 24.56 75.09"/><polygon class="cls-3" points="15.69 75.09 74.24 23.21 76.64 23.21 17.41 75.09 15.69 75.09"/><polygon class="cls-4" points="17.41 75.09 75.6 24.12 117.2 39.31 24.56 75.09 17.41 75.09"/><g class="cls-5"><rect class="cls-6" x="7.29" y="50.19" width="83.01" height="0.72" transform="translate(-20.8 40.87) rotate(-38.09)"/><rect class="cls-6" x="9.54" y="51.42" width="86.19" height="0.72" transform="translate(-20.06 38.84) rotate(-34.43)"/><rect class="cls-6" x="12.65" y="52.75" width="89.24" height="0.72" transform="translate(-19.2 37.21) rotate(-31.1)"/><rect class="cls-6" x="15.44" y="54.32" width="93.84" height="0.72" transform="translate(-18.08 34.49) rotate(-27.16)"/><rect class="cls-6" x="17.98" y="55.81" width="98.5" height="0.72" transform="translate(-16.99 32.06) rotate(-23.9)"/></g><path class="cls-7" d="M90.67,124a14.7,14.7,0,1,1,6.79-19.65A14.72,14.72,0,0,1,90.67,124ZM78.25,98.5a13.7,13.7,0,1,0,18.31,6.33A13.71,13.71,0,0,0,78.25,98.5Z"/><path class="cls-7" d="M104.2,119.4A14.7,14.7,0,1,1,111,99.75,14.72,14.72,0,0,1,104.2,119.4ZM91.78,93.86a13.7,13.7,0,1,0,18.32,6.33A13.72,13.72,0,0,0,91.78,93.86Z"/><path class="cls-7" d="M92.89,109.11a14.7,14.7,0,1,1,6.79-19.65A14.72,14.72,0,0,1,92.89,109.11ZM80.47,83.57A13.7,13.7,0,1,0,98.78,89.9,13.72,13.72,0,0,0,80.47,83.57Z"/><path class="cls-8" d="M46.16,59.37l-8.31,5c-.73.43-5.7,3.73-6.46,3.75-8.19.17-10-7.81-9.07-14.73.93-7.26,4.38-13.83,4.65-21.25.24-6.51-1.78-13.53-7.22-17.56C14.09,10.39,6.6,11.07,0,11.77l16.42-6L7.51.53C14.33-.2,22.07-.89,27.77,3.74c5.08,4.13,7,10.84,6.72,17.17-.28,7.66-4,14.47-4.74,22C29.12,49.68,39.49,63.39,46.16,59.37Z"/></g></g></svg>