<svg xmlns="http://www.w3.org/2000/svg" viewBox="0 0 208.07 170.35"><defs><style>.cls-1{fill:#fdf4d7;}.cls-2{fill:#903c7a;}.cls-3{fill:#d23757;}.cls-4{fill:#e4dfbf;}.cls-5{fill:#fbc628;}.cls-6{fill:#e4c141;}.cls-7{fill:#42c9b8;}.cls-8{fill:#309084;}</style></defs><title>Asset 111</title><g id="Layer_2" data-name="Layer 2"><g id="Layer_1-2" data-name="Layer 1"><polygon class="cls-1" points="111.27 147.46 110.91 168.51 173.91 141.78 173.81 118.83 111.27 147.46"/><polygon class="cls-2" points="0 100.23 0.68 123.11 110.88 170.35 111.29 146.42 0 100.23"/><polygon class="cls-3" points="0 100.23 65.19 75.23 175.92 117.9 111.29 146.42 0 100.23"/><polygon class="cls-2" points="111.29 146.42 111.23 149.54 175.7 120.44 175.92 117.9 111.29 146.42"/><polygon class="cls-2" points="110.93 167.37 110.88 170.35 173.91 142.96 173.91 140.59 110.93 167.37"/><path class="cls-4" d="M111.17,153.46c19.85-9.52,42.61-19.64,64.15-28.47-21.28,10.17-44,20.24-64.15,28.47Z"/><path class="cls-4" d="M111.1,157.13C130.87,147.71,153.54,137.7,175,129,153.8,139,131.15,149,111.1,157.13Z"/><path class="cls-4" d="M111,160.77c19.69-9.32,41.51-18.92,62.87-27.55-21.1,9.95-42.9,19.5-62.87,27.55Z"/><path class="cls-4" d="M111,164.38c19.61-9.22,41.65-18.81,62.9-27.34-21,9.84-43,19.38-62.9,27.34Z"/><polygon class="cls-5" points="5.51 109.83 5.51 119.84 37.12 132.75 36.73 122.72 5.51 109.83"/><polygon class="cls-5" points="48.64 127.23 48.64 137.24 101.7 159.64 101.91 149.44 48.64 127.23"/><path class="cls-5" d="M52.46,102.48l24-9.48a6.57,6.57,0,0,1,4.72,0l14,5.49c4.17,1.63,4.26,6.56.14,8.29l-23.08,9.74a6.55,6.55,0,0,1-4.81.07l-14.89-5.74C48.25,109.2,48.23,104.15,52.46,102.48Z"/><polygon class="cls-1" points="143.42 123.02 143.06 144.06 207.99 115.94 208.07 94.35 143.42 123.02"/><polygon class="cls-6" points="32.15 75.78 32.15 98.86 143.03 145.9 143.44 121.97 32.15 75.78"/><polygon class="cls-5" points="32.15 75.78 97.34 50.78 208.07 93.45 143.44 121.97 32.15 75.78"/><polygon class="cls-6" points="143.44 121.97 143.39 125.09 208.07 95.89 208.07 93.45 143.44 121.97"/><polygon class="cls-6" points="143.08 142.93 143.03 145.9 207.99 117.67 207.99 115.36 143.08 142.93"/><path class="cls-4" d="M143.32,129c19.85-9.52,43.1-19.84,64.64-28.67-21.28,10.17-44.51,20.45-64.64,28.67Z"/><path class="cls-4" d="M143.26,132.68c19.76-9.42,43.26-19.85,64.7-28.58-21.19,10.06-44.66,20.45-64.7,28.58Z"/><path class="cls-4" d="M143.19,136.32c19.69-9.32,43.42-19.55,64.77-28.18-21.09,10-44.8,20.14-64.77,28.18Z"/><path class="cls-4" d="M143.13,139.93c19.61-9.22,43.57-19.44,64.83-28-21,9.84-45,20-64.83,28Z"/><polygon class="cls-7" points="59.3 93.9 60.02 103.96 90.93 117.26 90.93 106.96 59.3 93.9"/><path class="cls-7" d="M84.61,78l24-9.48a6.51,6.51,0,0,1,4.72,0l14,5.48c4.17,1.64,4.26,6.56.15,8.3l-23.09,9.73a6.5,6.5,0,0,1-4.81.07L84.66,86.39C80.4,84.75,80.38,79.71,84.61,78Z"/><path class="cls-1" d="M169.93,3.23,168.55,0S115.49,13.84,114,22.36l48-8.64Z"/><path class="cls-1" d="M58.06,3.23,59.44,0S112.5,13.84,114,22.36L66,13.72Z"/><polygon class="cls-4" points="53.99 4.95 56.92 1.82 113.99 22.36 90.76 18.48 53.99 4.95"/><polygon class="cls-4" points="174 4.95 171.07 1.82 113.99 22.36 137.23 18.48 174 4.95"/><polygon class="cls-7" points="120.95 20.23 120.95 96.61 175.92 79.72 175.92 3.33 120.95 20.23"/><polygon class="cls-7" points="107.07 20.12 107.07 96.51 52.1 79.61 52.1 3.23 107.07 20.12"/><rect class="cls-8" x="104.45" y="19.04" width="19.1" height="78.24" rx="4.52"/><path class="cls-3" d="M114,30.43h-.06a47.87,47.87,0,0,1-9.87-1.05c-.74-.15-1.18-.75-1-1.32a1.49,1.49,0,0,1,1.72-.75,43.4,43.4,0,0,0,9.13,1,43.46,43.46,0,0,0,9.22-1,1.49,1.49,0,0,1,1.72.75c.21.57-.23,1.17-1,1.32A46.93,46.93,0,0,1,114,30.43Z"/><path class="cls-3" d="M114,40.2h-.06a48.56,48.56,0,0,1-9.87-1c-.74-.16-1.18-.76-1-1.33a1.49,1.49,0,0,1,1.72-.75A43.4,43.4,0,0,0,114,38a43.46,43.46,0,0,0,9.22-1,1.49,1.49,0,0,1,1.72.75c.21.57-.23,1.17-1,1.33A47.59,47.59,0,0,1,114,40.2Z"/><path class="cls-3" d="M114,50h-.06a47.19,47.19,0,0,1-9.87-1c-.74-.16-1.18-.75-1-1.33a1.5,1.5,0,0,1,1.72-.75,44.08,44.08,0,0,0,9.13,1,43.46,43.46,0,0,0,9.22-1,1.49,1.49,0,0,1,1.72.75c.21.58-.23,1.17-1,1.33A47.59,47.59,0,0,1,114,50Z"/><path class="cls-3" d="M114,59.74h-.06a47.19,47.19,0,0,1-9.87-1c-.74-.16-1.18-.75-1-1.32a1.48,1.48,0,0,1,1.72-.75,44.32,44.32,0,0,0,18.35,0,1.48,1.48,0,0,1,1.72.75c.21.57-.23,1.16-1,1.32A47.59,47.59,0,0,1,114,59.74Z"/><path class="cls-3" d="M114,69.52h-.06a47.87,47.87,0,0,1-9.87-1c-.74-.15-1.18-.75-1-1.32a1.49,1.49,0,0,1,1.72-.75,44.32,44.32,0,0,0,18.35,0,1.49,1.49,0,0,1,1.72.75c.21.57-.23,1.17-1,1.32A46.93,46.93,0,0,1,114,69.52Z"/><path class="cls-3" d="M114,79.29h-.06a47.19,47.19,0,0,1-9.87-1c-.74-.16-1.18-.76-1-1.33a1.49,1.49,0,0,1,1.72-.75,43.88,43.88,0,0,0,18.35,0,1.49,1.49,0,0,1,1.72.75c.21.57-.23,1.17-1,1.33A47.59,47.59,0,0,1,114,79.29Z"/><path class="cls-3" d="M114,89.06h-.06a47.19,47.19,0,0,1-9.87-1c-.74-.16-1.18-.75-1-1.33a1.49,1.49,0,0,1,1.72-.74,44.77,44.77,0,0,0,9.13,1,44.12,44.12,0,0,0,9.22-1,1.49,1.49,0,0,1,1.72.74c.21.58-.23,1.17-1,1.33A47.59,47.59,0,0,1,114,89.06Z"/><path class="cls-3" d="M157,43.23l-8.41,2.62c-8.16,2.55-15.24-.13-15.24-6.1h0c0-5.9,6.92-12.14,14.91-13.9L156.54,24c6.9-1.52,12.32,1.29,12.51,6.24h0C169.25,35.26,164.05,41,157,43.23Z"/><polygon class="cls-3" points="169.78 45.91 132.54 57.86 132.61 56.43 169.93 44.54 169.78 45.91"/></g></g></svg>