<svg xmlns="http://www.w3.org/2000/svg" xmlns:xlink="http://www.w3.org/1999/xlink" viewBox="0 0 153.75 183.62"><defs><style>.cls-1{fill:none;}.cls-2{fill:#fdf4d7;}.cls-3{clip-path:url(#clip-path);}.cls-4{fill:#e4dfbf;}.cls-5{fill:#4c6637;}.cls-6{fill:#91ba80;}.cls-7{clip-path:url(#clip-path-2);}.cls-8{fill:#5c2e3b;}.cls-9{fill:#f6352c;}.cls-10{fill:#d23757;}.cls-11{fill:#c9e9f4;}.cls-12{clip-path:url(#clip-path-3);}</style><clipPath id="clip-path"><path class="cls-1" d="M42.14,181H152.08a21.52,21.52,0,0,1-4.77-13.36,22.21,22.21,0,0,1,4.77-14.78H42.14Z"/></clipPath><clipPath id="clip-path-2"><path class="cls-1" d="M110.49,147H12.34a12,12,0,0,0,4.26-8.54A12.22,12.22,0,0,0,12.34,129h98.15Z"/></clipPath><clipPath id="clip-path-3"><polygon class="cls-1" points="23.9 28.46 71.92 0.83 99 17.33 28.92 29.47 23.9 28.46"/></clipPath></defs><title>Asset 171</title><g id="Layer_2" data-name="Layer 2"><g id="Layer_1-2" data-name="Layer 1"><path class="cls-2" d="M42.14,181H152.08a21.52,21.52,0,0,1-4.77-13.36,22.21,22.21,0,0,1,4.77-14.78H42.14Z"/><g class="cls-3"><rect class="cls-4" x="41.29" y="156.35" width="110.34" height="1.64"/><rect class="cls-4" x="41.29" y="160.33" width="110.34" height="1.64"/><rect class="cls-4" x="41.29" y="164.31" width="110.34" height="1.64"/><rect class="cls-4" x="41.29" y="168.29" width="110.34" height="1.64"/><rect class="cls-4" x="41.29" y="172.27" width="110.34" height="1.64"/><rect class="cls-4" x="41.29" y="176.25" width="110.34" height="1.64"/></g><path class="cls-5" d="M153.75,151.91v2l-108-.23a29.84,29.84,0,0,0-3.14,12.8A30.55,30.55,0,0,0,45.77,181h108v2.6h-108L3,158.05a36.21,36.21,0,0,1-3-13.42,37.46,37.46,0,0,1,2.7-15.55L46.05,151Z"/><polygon class="cls-6" points="153.75 151.91 102.26 127.12 2.73 129.08 45.56 151.91 153.75 151.91"/><path class="cls-2" d="M110.49,147H12.34a12,12,0,0,0,4.26-8.54A12.22,12.22,0,0,0,12.34,129h98.15Z"/><g class="cls-7"><rect class="cls-4" x="12.74" y="131.23" width="98.51" height="1.05"/><rect class="cls-4" x="12.74" y="133.77" width="98.51" height="1.05"/><rect class="cls-4" x="12.74" y="136.32" width="98.51" height="1.05"/><rect class="cls-4" x="12.74" y="138.86" width="98.51" height="1.05"/><rect class="cls-4" x="12.74" y="141.41" width="98.51" height="1.05"/><rect class="cls-4" x="12.74" y="143.95" width="98.51" height="1.05"/></g><path class="cls-8" d="M10.85,128.39v1.27l96.4-.15a15,15,0,0,1,0,17.49H10.85v1.67h96.4l38.15-16.36a17.93,17.93,0,0,0,.27-18.52l-38.67,14Z"/><polygon class="cls-9" points="10.85 128.39 56.81 112.53 145.67 113.79 107.43 128.39 10.85 128.39"/><rect class="cls-10" x="36.82" y="22.57" width="72.31" height="98.78" transform="translate(-11.21 13.5) rotate(-9.82)"/><path class="cls-4" d="M94.27,113.14l-27.52,4.77,0-.25c-1.45-8.33-11-15.1-19.36-13.66l-.24,0L37.83,50.44l.24,0C46.42,49,53.17,39.48,51.75,31.26l0-.24,27.52-4.77,0,.25C80.72,34.87,90,41.42,98.27,40l.24,0,9.28,53.6-.24,0c-8.16,1.43-14.76,11-13.32,19.32Zm-27.12,4.19,26.55-4.59c-1.29-8.38,5.2-17.87,13.33-19.56l.19,0L98.11,40.51c-8.42,1.3-17.67-5.26-19.28-13.68L52.28,31.42c1.28,8.33-5.49,17.8-13.88,19.43l9.11,52.62C55.94,102.18,65.54,109,67.15,117.33Z"/><path class="cls-4" d="M38.47,49.51l-.54.1-.24,0L35,33.91,50.7,31.19l0,.25A15.74,15.74,0,0,1,38.47,49.51Zm-.38-.44a15.23,15.23,0,0,0,12.2-17.3L35.54,34.32Z"/><path class="cls-4" d="M98.37,39.14l-.24,0A15.75,15.75,0,0,1,80,26.38l0-.25,15.73-2.72ZM80.49,26.54A15.24,15.24,0,0,0,97.8,38.74L95.25,24Z"/><path class="cls-4" d="M65.74,118.08,50,120.81l-2.73-15.74.25,0A15.74,15.74,0,0,1,65.7,117.84Zm-15.33,2.15,14.75-2.55a15.22,15.22,0,0,0-17.3-12.2Z"/><path class="cls-4" d="M110.69,110.3,95,113l0-.25a15.73,15.73,0,0,1,12.8-18.17l.25,0Zm-15.32,2.15,14.75-2.55-2.56-14.76A15.22,15.22,0,0,0,95.37,112.45Z"/><rect class="cls-8" x="52.32" y="52.87" width="36.6" height="14.85" transform="translate(-4.49 5.7) rotate(-4.48)"/><rect class="cls-11" x="56.19" y="54.51" width="28.61" height="11.61" transform="translate(-9.25 12.91) rotate(-9.82)"/><polygon class="cls-8" points="28.92 29.47 45.77 126.8 38.93 125.43 22.69 28.22 28.92 29.47"/><polygon class="cls-8" points="22.69 28.22 71.09 0 72.77 0.34 23.9 28.46 22.69 28.22"/><polygon class="cls-2" points="23.9 28.46 71.92 0.83 99 17.33 28.92 29.47 23.9 28.46"/><g class="cls-12"><rect class="cls-4" x="19.66" y="15.37" width="59.45" height="0.52" transform="translate(-1.75 23.91) rotate(-26.76)"/><rect class="cls-4" x="21.04" y="16.77" width="61.73" height="0.52" transform="translate(-2.53 21.66) rotate(-23.02)"/><rect class="cls-4" x="23.02" y="18.36" width="63.91" height="0.52" transform="translate(-3.06 19.62) rotate(-19.7)"/><rect class="cls-4" x="24.73" y="20.18" width="67.21" height="0.52" transform="translate(-3.36 16.72) rotate(-15.86)"/><rect class="cls-4" x="26.27" y="21.91" width="70.54" height="0.52" transform="translate(-3.36 13.99) rotate(-12.62)"/></g></g></g></svg>