<svg xmlns="http://www.w3.org/2000/svg" viewBox="0 0 154.77 157.91"><defs><style>.cls-1{fill:#fdf4d7;}.cls-2{fill:#e4dfbf;}.cls-3{fill:#e4c141;}.cls-4{fill:#fbc628;}.cls-5{fill:#5c2e3b;}</style></defs><title>Asset 121</title><g id="Layer_2" data-name="Layer 2"><g id="Layer_1-2" data-name="Layer 1"><path class="cls-1" d="M147.29,5.24,145.56,0S79.24,22.47,77.37,36.3l59.95-14Z"/><path class="cls-1" d="M7.45,5.24,9.18,0S75.5,22.47,77.37,36.3l-60-14Z"/><polygon class="cls-2" points="2.36 8.03 6.03 2.95 77.37 36.3 48.33 30 2.36 8.03"/><polygon class="cls-2" points="152.37 8.03 148.71 2.95 77.37 36.3 106.41 30 152.37 8.03"/><polygon class="cls-3" points="86.07 32.83 86.07 156.82 154.77 129.39 154.77 5.4 86.07 32.83"/><polygon class="cls-3" points="68.71 32.66 68.71 156.65 0 129.22 0 5.24 68.71 32.66"/><rect class="cls-4" x="65.43" y="30.91" width="23.87" height="127" rx="6.44"/><path class="cls-5" d="M77.37,49.39H77.3A46.66,46.66,0,0,1,65,47.7a1.75,1.75,0,1,1,.93-3.37,42.95,42.95,0,0,0,22.94,0,1.75,1.75,0,1,1,.93,3.37A46.41,46.41,0,0,1,77.37,49.39Z"/><path class="cls-5" d="M77.37,65.25H77.3A46.66,46.66,0,0,1,65,63.56a1.75,1.75,0,0,1,.93-3.37,42.95,42.95,0,0,0,22.94,0,1.75,1.75,0,0,1,.93,3.37A46.41,46.41,0,0,1,77.37,65.25Z"/><path class="cls-5" d="M77.37,81.11H77.3A45.85,45.85,0,0,1,65,79.42a1.75,1.75,0,0,1,.93-3.37,42.68,42.68,0,0,0,22.94,0,1.75,1.75,0,0,1,.93,3.37A46.41,46.41,0,0,1,77.37,81.11Z"/><path class="cls-5" d="M77.37,97H77.3A45.85,45.85,0,0,1,65,95.28a1.74,1.74,0,1,1,.93-3.36,42.95,42.95,0,0,0,22.94,0,1.74,1.74,0,1,1,.93,3.36A46,46,0,0,1,77.37,97Z"/><path class="cls-5" d="M77.37,112.84H77.3A46.66,46.66,0,0,1,65,111.15a1.75,1.75,0,1,1,.93-3.37,42.95,42.95,0,0,0,22.94,0,1.75,1.75,0,1,1,.93,3.37A46.41,46.41,0,0,1,77.37,112.84Z"/><path class="cls-5" d="M77.37,128.7H77.3A46.66,46.66,0,0,1,65,127a1.75,1.75,0,1,1,.93-3.37,42.95,42.95,0,0,0,22.94,0,1.75,1.75,0,1,1,.93,3.37A46.41,46.41,0,0,1,77.37,128.7Z"/><path class="cls-5" d="M77.37,144.56H77.3A45.85,45.85,0,0,1,65,142.87a1.75,1.75,0,1,1,.93-3.37,42.68,42.68,0,0,0,22.94,0,1.75,1.75,0,1,1,.93,3.37A46.41,46.41,0,0,1,77.37,144.56Z"/><path class="cls-5" d="M131.17,70.16l-10.52,4.27c-10.2,4.14-19.05-.22-19.05-9.91h0c0-9.57,8.65-19.71,18.64-22.56l10.31-3c8.62-2.47,15.4,2.09,15.65,10.12h0C146.44,57.24,139.94,66.6,131.17,70.16Z"/><polygon class="cls-5" points="147.1 74.52 100.56 93.91 100.64 91.59 147.29 72.3 147.1 74.52"/></g></g></svg>