<svg xmlns="http://www.w3.org/2000/svg" viewBox="0 0 174.11 161.36"><defs><style>.cls-1{fill:#fdf4d7;}.cls-2{fill:#e4c141;}.cls-3{fill:#fbc628;}.cls-4{fill:#e4dfbf;}.cls-5{fill:#91ba80;}.cls-6{fill:#5c2e3b;}.cls-7{fill:#903c7a;}.cls-8{fill:#4c6637;}.cls-9{fill:#f6352c;}</style></defs><title>Asset 181</title><g id="Layer_2" data-name="Layer 2"><g id="Layer_1-2" data-name="Layer 1"><polygon class="cls-1" points="113.97 145.17 113.97 160.03 174.11 138.1 174.11 123.15 113.97 145.17"/><polygon class="cls-2" points="4.87 118.94 4.87 134.93 113.97 161.36 113.97 144.45 4.87 118.94"/><polygon class="cls-3" points="4.87 118.94 70 100.65 174.11 122.55 113.97 144.45 4.87 118.94"/><polygon class="cls-2" points="113.97 144.45 113.97 146.6 174.11 124.17 174.11 122.55 113.97 144.45"/><polygon class="cls-2" points="113.97 159.21 113.97 161.36 174.11 138.92 174.11 137.31 113.97 159.21"/><path class="cls-4" d="M114,149.33c19.24-7.61,40.58-15.5,60.14-22.24-19.24,7.61-40.58,15.5-60.14,22.24Z"/><path class="cls-4" d="M114,151.91c19.24-7.61,40.58-15.51,60.14-22.25-19.24,7.61-40.58,15.5-60.14,22.25Z"/><path class="cls-4" d="M114,154.48c19.24-7.61,40.58-15.5,60.14-22.24-19.24,7.61-40.58,15.5-60.14,22.24Z"/><path class="cls-4" d="M114,157.06c19.24-7.61,40.58-15.51,60.14-22.25-19.24,7.61-40.58,15.5-60.14,22.25Z"/><path class="cls-5" d="M30.74,131.11v2.81a3.42,3.42,0,0,0,2.61,3.33l26.71,6.4a1.14,1.14,0,0,0,1.41-1.11v-3a3.4,3.4,0,0,0-2.64-3.32L32.14,130A1.14,1.14,0,0,0,30.74,131.11Z"/><polygon class="cls-5" points="46.1 121.3 82.52 110.44 107.72 115.87 73.3 127.09 46.1 121.3"/><polygon class="cls-1" points="60.13 130.76 60.13 145.61 0 123.69 0 108.73 60.13 130.76"/><polygon class="cls-6" points="169.24 104.53 169.24 120.52 60.13 146.95 60.13 130.04 169.24 104.53"/><polygon class="cls-7" points="169.24 104.53 104.1 86.24 0 108.14 60.13 130.04 169.24 104.53"/><polygon class="cls-6" points="60.13 130.04 60.13 132.19 0 109.76 0 108.14 60.13 130.04"/><polygon class="cls-6" points="60.13 144.79 60.13 146.95 0 124.51 0 122.89 60.13 144.79"/><path class="cls-4" d="M60.13,134.92C40.9,127.31,19.56,119.42,0,112.68c19.24,7.61,40.58,15.5,60.13,22.24Z"/><path class="cls-4" d="M60.13,137.5C40.9,129.89,19.56,122,0,115.25c19.24,7.61,40.58,15.5,60.13,22.25Z"/><path class="cls-4" d="M60.13,140.07C40.9,132.46,19.56,124.57,0,117.83c19.24,7.61,40.58,15.5,60.13,22.24Z"/><path class="cls-4" d="M60.13,142.64C40.9,135,19.56,127.14,0,120.4c19.24,7.61,40.58,15.5,60.13,22.24Z"/><path class="cls-7" d="M143.37,116.7v2.81a3.41,3.41,0,0,1-2.62,3.32l-26.7,6.41a1.14,1.14,0,0,1-1.41-1.11v-3a3.4,3.4,0,0,1,2.64-3.32L142,115.58A1.15,1.15,0,0,1,143.37,116.7Z"/><polygon class="cls-3" points="128 106.89 91.58 96.03 66.38 101.46 100.81 112.68 128 106.89"/><polygon class="cls-1" points="113.97 112.43 113.97 127.29 174.11 105.36 174.11 90.41 113.97 112.43"/><polygon class="cls-8" points="4.87 86.21 4.87 102.19 113.97 128.62 113.97 111.72 4.87 86.21"/><polygon class="cls-5" points="4.87 86.21 70 67.92 174.11 89.81 113.97 111.72 4.87 86.21"/><polygon class="cls-8" points="113.97 111.72 113.97 113.87 174.11 91.43 174.11 89.81 113.97 111.72"/><polygon class="cls-8" points="113.97 126.47 113.97 128.62 174.11 106.19 174.11 104.57 113.97 126.47"/><path class="cls-4" d="M114,116.59c19.24-7.6,40.58-15.5,60.14-22.24-19.24,7.61-40.58,15.5-60.14,22.24Z"/><path class="cls-4" d="M114,119.17c19.24-7.61,40.58-15.5,60.14-22.24-19.24,7.61-40.58,15.5-60.14,22.24Z"/><path class="cls-4" d="M114,121.74c19.24-7.6,40.58-15.5,60.14-22.24-19.24,7.61-40.58,15.5-60.14,22.24Z"/><path class="cls-4" d="M114,124.32c19.24-7.61,40.58-15.51,60.14-22.24-19.24,7.61-40.58,15.5-60.14,22.24Z"/><polygon class="cls-5" points="30.74 96.93 30.74 103.88 61.47 111.25 61.47 104.08 30.74 96.93"/><polygon class="cls-3" points="46.1 88.56 82.52 77.7 107.72 83.13 73.3 94.35 46.1 88.56"/><path class="cls-9" d="M23.89,30.51l17.74,76.36h64.18s-.45,2.86,6.17,2,6-4.66,6-4.66l46.3-34.41L139.93,0l-49,25s-5.71-2.55-8.42,1.2C82.51,26.15,48.69,18.19,23.89,30.51Z"/><path class="cls-4" d="M34.72,18,26.15,30.81l18,72.61,62.38,2a9.52,9.52,0,0,0,5.79.86c2.82-.67,4.51-3.72,4.51-3.72l44-33.22L138.88,2,127.76,1.2,86.47,31.42Z"/><path class="cls-1" d="M34.72,18l22.09,74.4s33.82-7.81,53.06,11c0,0,3-20,42.09-34.43L127.76,1.2S102.51,8.12,84.62,27.06C84.62,27.06,64.78,10.82,34.72,18Z"/><path class="cls-4" d="M84.62,27.06c9.28,25.1,17.73,50.67,25.25,76.36-9.28-25.11-17.73-50.68-25.25-76.36Z"/><path class="cls-4" d="M84.2,36.41C66.53,22.82,46.06,33,45.86,33.07l-.63-1.23c.21-.11,21.43-10.66,39.81,3.47Z"/><path class="cls-4" d="M49.82,45.06l-.73-1.17c.18-.11,18.79-11.52,37.27-1.42l-.66,1.21C67.94,34,50,45,49.82,45.06Z"/><path class="cls-4" d="M54.1,56.45l-.48-1.29c.8-.3,19.76-7.14,34.86-1.3L88,55.14C73.37,49.5,54.29,56.38,54.1,56.45Z"/><path class="cls-4" d="M58.74,68.89l-.34-1.33c.92-.24,22.68-5.82,33.29-1.58l-.51,1.28C81,63.19,59,68.84,58.74,68.89Z"/><path class="cls-4" d="M62.31,81.2l-.47-1.29c.88-.32,21.61-7.65,33.68.06l-.74,1.16C83.28,73.79,62.52,81.13,62.31,81.2Z"/><path class="cls-4" d="M92.73,33.62l-1.18-.73a50.46,50.46,0,0,1,34.26-20.76l.2,1.36A49,49,0,0,0,92.73,33.62Z"/><path class="cls-4" d="M95.77,42.16l-1-.89c.15-.17,15.11-17.67,34.28-18.12l0,1.37C110.49,25,95.92,42,95.77,42.16Z"/><path class="cls-4" d="M100.58,51.85l-1-.91c.65-.74,16.1-18.08,33.18-15.76l-.19,1.36C116.16,34.31,100.73,51.67,100.58,51.85Z"/><path class="cls-4" d="M105.48,63.28l-1-.93c.13-.14,13.54-14.75,32.93-16l.09,1.37C118.64,48.94,105.61,63.13,105.48,63.28Z"/><path class="cls-4" d="M109.5,76.15l-.94-1c.73-.68,18-16.73,32.91-16.12l-.05,1.38C127.13,59.84,109.67,76,109.5,76.15Z"/></g></g></svg>