<svg xmlns="http://www.w3.org/2000/svg" viewBox="0 0 249.99 158.68"><defs><style>.cls-1{fill:#fbc628;}.cls-2{fill:#309084;}.cls-3{fill:#e4dfbf;}.cls-4{fill:#fdf4d7;}.cls-5{fill:#f6352c;}</style></defs><title>Asset 91</title><g id="Layer_2" data-name="Layer 2"><g id="Layer_1-2" data-name="Layer 1"><path class="cls-1" d="M63.17,57.11c-.76,0-3.25,5-3.71,5.67s-3.05,5.57-3.82,5.59c-8.19.17-11.08-8.05-10.2-15,.93-7.26,4.38-13.83,4.65-21.25.24-6.51-1.78-13.53-7.22-17.56-5.66-4.2-13.15-3.52-19.75-2.82l16.42-6L30.63.53C37.45-.21,45.19-.89,50.89,3.74c5.08,4.13,7,10.84,6.73,17.17-.29,7.66-4,14.47-4.75,22C52.24,49.68,55.38,57.28,63.17,57.11Z"/><path class="cls-2" d="M0,64.69,16.56,136H76.48s-.42,2.67,5.75,1.83,5.61-4.35,5.61-4.35l43.23-32.13L108.33,36.21,62.25,63.1s-5.34-2.39-7.86,1.12C54.39,64.22,23.15,53.19,0,64.69Z"/><path class="cls-3" d="M10.1,53.05,2.1,65l16.84,67.77,58.24,1.83a8.84,8.84,0,0,0,5.4.8c2.63-.63,4.21-3.47,4.21-3.47l41.12-31L107.35,38,97,37.33,58.42,65.54Z"/><path class="cls-4" d="M10.1,53.05l20.63,69.46s31.58-7.3,49.54,10.24c0,0,2.8-18.66,39.29-32.13L97,37.33S73.39,43.79,56.69,61.47C56.69,61.47,38.17,46.31,10.1,53.05Z"/><path class="cls-3" d="M56.69,61.47c8.66,23.43,16.56,47.3,23.58,71.28-8.67-23.44-16.56-47.3-23.58-71.28Z"/><path class="cls-3" d="M56.3,70.2C39.8,57.51,20.69,67,20.5,67.08l-.58-1.15c.2-.1,20-9.94,37.16,3.25Z"/><path class="cls-3" d="M24.2,78.28l-.68-1.09c.17-.11,17.54-10.76,34.8-1.33L57.7,77C41.12,67.93,24.37,78.17,24.2,78.28Z"/><path class="cls-3" d="M28.2,88.91l-.44-1.21C28.5,87.42,46.2,81,60.3,86.49l-.47,1.2C46.19,82.42,28.38,88.84,28.2,88.91Z"/><path class="cls-3" d="M32.54,100.53l-.33-1.25c.86-.22,21.18-5.43,31.09-1.47L62.82,99C53.31,95.2,32.74,100.47,32.54,100.53Z"/><path class="cls-3" d="M35.87,112l-.44-1.21c.82-.29,20.17-7.13,31.44.07l-.7,1.08C55.44,105.1,36.06,112,35.87,112Z"/><path class="cls-3" d="M64.26,67.59l-1.09-.67a47.08,47.08,0,0,1,32-19.39l.18,1.28A45.76,45.76,0,0,0,64.26,67.59Z"/><path class="cls-3" d="M67.11,75.57l-1-.83c.14-.16,14.11-16.5,32-16.92l0,1.28C80.85,59.51,67.24,75.41,67.11,75.57Z"/><path class="cls-3" d="M71.59,84.61l-1-.85c.61-.69,15-16.88,31-14.71l-.18,1.27C86.13,68.24,71.73,84.45,71.59,84.61Z"/><path class="cls-3" d="M76.17,95.28l-1-.86c.13-.14,12.64-13.77,30.75-14.9L106,80.8C88.45,81.9,76.29,95.15,76.17,95.28Z"/><path class="cls-3" d="M79.92,107.3l-.88-.94c.68-.64,16.85-15.62,30.73-15l0,1.28C96.38,92.07,80.08,107.14,79.92,107.3Z"/><path class="cls-5" d="M250,69l-20.26,87.2h-73.3s.51,3.27-7,2.24-6.87-5.33-6.87-5.33L89.65,113.86l27.81-79.67,56,28.49S180,59.76,183,64.06C183,64.06,221.66,55,250,69Z"/><path class="cls-3" d="M237.63,54.79l9.78,14.59-20.6,82.92-71.24,2.23a10.84,10.84,0,0,1-6.61,1c-3.22-.77-5.15-4.24-5.15-4.24l-50.3-37.94,25.15-76.91,12.7-.86,47.16,34.5Z"/><path class="cls-4" d="M237.63,54.79l-25.24,85s-38.62-8.92-60.6,12.54c0,0-3.43-22.84-48.07-39.32l27.64-77.42s28.84,7.9,49.27,29.53C180.63,65.09,203.29,46.55,237.63,54.79Z"/><path class="cls-3" d="M180.63,65.09C170,93.75,160.38,123,151.79,152.3c10.6-28.68,20.26-57.88,28.84-87.21Z"/><path class="cls-3" d="M181.11,75.76C201.3,60.24,224.67,71.83,224.9,72l.72-1.4c-.25-.13-24.48-12.17-45.47,4Z"/><path class="cls-3" d="M220.38,85.65l.84-1.33c-.22-.14-21.47-13.16-42.57-1.63l.75,1.38C199.68,73,220.18,85.52,220.38,85.65Z"/><path class="cls-3" d="M215.49,98.65l.54-1.47c-.91-.34-22.56-8.15-39.81-1.48l.57,1.47C193.48,90.72,215.27,98.58,215.49,98.65Z"/><path class="cls-3" d="M210.18,112.87l.4-1.52c-1.05-.28-25.91-6.65-38-1.8l.59,1.46C184.77,106.35,209.93,112.8,210.18,112.87Z"/><path class="cls-3" d="M206.11,126.92l.53-1.48c-1-.36-24.67-8.72-38.45.08l.84,1.33C182.17,118.46,205.87,126.84,206.11,126.92Z"/><path class="cls-3" d="M171.37,72.58l1.34-.83c-.12-.2-12.52-19.93-39.13-23.71l-.22,1.56C159.22,53.27,171.25,72.38,171.37,72.58Z"/><path class="cls-3" d="M167.89,82.34l1.21-1c-.17-.2-17.26-20.18-39.16-20.7l0,1.57C151.08,62.69,167.73,82.14,167.89,82.34Z"/><path class="cls-3" d="M162.41,93.4l1.18-1c-.74-.84-18.38-20.65-37.89-18l.21,1.56C144.61,73.37,162.23,93.2,162.41,93.4Z"/><path class="cls-3" d="M156.81,106.45l1.17-1c-.16-.17-15.47-16.85-37.62-18.23l-.1,1.57C141.78,90.08,156.66,106.29,156.81,106.45Z"/><path class="cls-3" d="M152.22,121.15l1.07-1.15c-.83-.78-20.61-19.11-37.59-18.41l.07,1.58C132.09,102.52,152,121,152.22,121.15Z"/><path class="cls-1" d="M218,33c-.64,4.54-2.57,9.11-4,13.43-.15.45-.3.87-.47,1.27,0,.13-.08.25-.11.37,0-.06,0-.11,0-.17a10.1,10.1,0,0,1-7.12,6.26c-9.1,2.74-21.06,2.8-26,11.92-.74,2-1.49,4.1-2.05,6.19,1-4.17,2.33-8.27,3.67-12.36a2.81,2.81,0,0,1,.1-.31c0-.1.06-.19.08-.29.38-1.22.61-1.89.69-2.06h0c1.24-3.71,2.68-7.19,6.15-9.47,4.65-3.06,10.83-3.86,16.12-5.16,3-.75,6.14-1.31,8.58-2.82a21.34,21.34,0,0,0-13.44-15.36c-7.82-2.94-24.31-5.66-28,4.51q.09-.23.18-.48v-.05l0-.05c.17-.52.36-1.07.54-1.66,3.17-7.58,14.95-12.48,14.95-12.48-5-2-11.39,1.34-11.39,1.34,4.26-9.11,18.56-7,26.49-4.49C212.33,14.08,219.41,22.93,218,33Z"/></g></g></svg>