<svg xmlns="http://www.w3.org/2000/svg" viewBox="0 0 217.12 106.43"><defs><style>.cls-1{fill:#fdf4d7;}.cls-2{fill:#c60508;}.cls-3{fill:#f6352c;}.cls-4{fill:#e4dfbf;}.cls-5{fill:#91ba80;}.cls-6{fill:#5c2e3b;}.cls-7{fill:#903c7a;}.cls-8{fill:#309084;}.cls-9{fill:#42c9b8;}.cls-10{fill:#e4c141;}</style></defs><title>Asset 71</title><g id="Layer_2" data-name="Layer 2"><g id="Layer_1-2" data-name="Layer 1"><polygon class="cls-1" points="68.5 88 68.5 104.92 0 79.95 0 62.91 68.5 88"/><polygon class="cls-2" points="192.77 58.13 192.77 76.33 68.5 106.44 68.5 87.18 192.77 58.13"/><polygon class="cls-3" points="192.77 58.13 118.58 37.29 0 62.23 68.5 87.18 192.77 58.13"/><polygon class="cls-2" points="68.5 87.18 68.5 89.63 0 64.08 0 62.23 68.5 87.18"/><polygon class="cls-2" points="68.5 103.98 68.5 106.44 0 80.88 0 79.04 68.5 103.98"/><path class="cls-4" d="M68.5,92.74C46.58,84.07,22.28,75.08,0,67.4c21.91,8.67,46.22,17.66,68.5,25.34Z"/><path class="cls-4" d="M68.5,95.67C46.58,87,22.28,78,0,70.34,21.91,79,46.22,88,68.5,95.67Z"/><path class="cls-4" d="M68.5,98.6C46.58,89.94,22.28,80.94,0,73.27,21.91,81.94,46.22,90.92,68.5,98.6Z"/><path class="cls-4" d="M68.5,101.53C46.58,92.87,22.28,83.88,0,76.2c21.91,8.67,46.22,17.66,68.5,25.33Z"/><path class="cls-5" d="M163.3,72v3.21a3.88,3.88,0,0,1-3,3.78l-30.41,7.3A1.31,1.31,0,0,1,128.3,85V81.58a3.88,3.88,0,0,1,3-3.79l30.39-7.08A1.3,1.3,0,0,1,163.3,72Z"/><polygon class="cls-5" points="145.8 60.81 104.32 48.44 75.61 54.63 114.82 67.4 145.8 60.81"/><polygon class="cls-1" points="92.85 74.06 92.85 90.98 24.35 66.01 24.35 48.97 92.85 74.06"/><polygon class="cls-6" points="217.12 44.19 217.12 62.39 92.85 92.49 92.85 73.24 217.12 44.19"/><polygon class="cls-7" points="217.12 44.19 142.93 23.35 24.35 48.29 92.85 73.24 217.12 44.19"/><polygon class="cls-6" points="92.85 73.24 92.85 75.69 24.35 50.14 24.35 48.29 92.85 73.24"/><polygon class="cls-6" points="92.85 90.04 92.85 92.49 24.35 66.94 24.35 65.1 92.85 90.04"/><path class="cls-4" d="M92.85,78.8c-21.91-8.67-46.22-17.66-68.5-25.34,21.91,8.67,46.22,17.66,68.5,25.34Z"/><path class="cls-4" d="M92.85,81.73c-21.91-8.67-46.22-17.66-68.5-25.34,21.91,8.67,46.22,17.66,68.5,25.34Z"/><path class="cls-4" d="M92.85,84.66C70.94,76,46.63,67,24.35,59.33,46.26,68,70.57,77,92.85,84.66Z"/><path class="cls-4" d="M92.85,87.59c-21.91-8.66-46.22-17.65-68.5-25.33,21.91,8.67,46.22,17.65,68.5,25.33Z"/><path class="cls-7" d="M187.66,58v3.21a3.88,3.88,0,0,1-3,3.78l-30.42,7.3a1.31,1.31,0,0,1-1.61-1.27V67.63a3.89,3.89,0,0,1,3-3.78l30.4-7.08A1.3,1.3,0,0,1,187.66,58Z"/><polygon class="cls-3" points="170.16 46.87 128.67 34.5 99.97 40.68 139.18 53.46 170.16 46.87"/><polygon class="cls-1" points="68.5 50.71 68.5 67.63 0 42.66 0 25.62 68.5 50.71"/><polygon class="cls-8" points="192.77 20.84 192.77 39.04 68.5 69.15 68.5 49.89 192.77 20.84"/><polygon class="cls-9" points="192.77 20.84 118.58 0 0 24.95 68.5 49.89 192.77 20.84"/><polygon class="cls-8" points="68.5 49.89 68.5 52.34 0 26.79 0 24.95 68.5 49.89"/><polygon class="cls-8" points="68.5 66.69 68.5 69.15 0 43.59 0 41.75 68.5 66.69"/><path class="cls-4" d="M68.5,55.45C46.58,46.78,22.28,37.79,0,30.11c21.91,8.67,46.22,17.66,68.5,25.34Z"/><path class="cls-4" d="M68.5,58.38C46.58,49.72,22.28,40.72,0,33.05,21.91,41.71,46.22,50.7,68.5,58.38Z"/><path class="cls-4" d="M68.5,61.31C46.58,52.65,22.28,43.65,0,36c21.91,8.67,46.22,17.65,68.5,25.33Z"/><path class="cls-4" d="M68.5,64.25C46.58,55.58,22.28,46.59,0,38.91c21.91,8.67,46.22,17.66,68.5,25.34Z"/><polygon class="cls-9" points="163.31 33.05 163.31 40.97 128.3 49.37 128.3 41.2 163.31 33.05"/><polygon class="cls-10" points="145.8 23.52 104.32 11.15 75.61 17.34 114.82 30.11 145.8 23.52"/></g></g></svg>