<svg xmlns="http://www.w3.org/2000/svg" viewBox="0 0 126.83 178.67"><defs><style>.cls-1{fill:#c60508;}.cls-2{fill:#903c7a;}.cls-3{fill:#fbc628;}</style></defs><title>Asset 21</title><g id="Layer_2" data-name="Layer 2"><g id="Layer_1-2" data-name="Layer 1"><path class="cls-1" d="M0,0H119.52a7.32,7.32,0,0,1,7.32,7.32v164a7.32,7.32,0,0,1-7.32,7.32H0a0,0,0,0,1,0,0V0A0,0,0,0,1,0,0Z"/><rect class="cls-2" y="21.16" width="19.9" height="4.58"/><rect class="cls-2" y="43.19" width="19.9" height="4.58"/><rect class="cls-2" y="65.23" width="19.9" height="4.58"/><rect class="cls-2" y="87.26" width="19.9" height="4.58"/><rect class="cls-2" y="109.3" width="19.9" height="4.58"/><rect class="cls-2" y="131.34" width="19.9" height="4.58"/><rect class="cls-2" y="153.37" width="19.9" height="4.58"/><rect class="cls-3" x="34.02" y="43.19" width="79.26" height="48.35"/><rect class="cls-3" x="34.02" y="21.07" width="79.26" height="13.79"/><rect class="cls-2" x="15.1" width="4.8" height="178.67"/></g></g></svg>