<svg xmlns="http://www.w3.org/2000/svg" viewBox="0 0 122.2 215.13"><defs><style>.cls-1{fill:#fdf4d7;}.cls-2{fill:#5c2e3b;}.cls-3{fill:#903c7a;}.cls-4{fill:#e4dfbf;}.cls-5{fill:#fbc628;}.cls-6{fill:#42c9b8;}.cls-7{fill:#309084;}.cls-8{fill:#d23757;}</style></defs><title>Asset 101</title><g id="Layer_2" data-name="Layer 2"><g id="Layer_1-2" data-name="Layer 1"><polygon class="cls-1" points="90.75 60.55 117.63 46.13 50.15 0.74 20.77 14.61 90.75 60.55"/><polygon class="cls-2" points="91.86 215.13 122.2 195.02 119.98 44.87 89.42 61.26 91.86 215.13"/><polygon class="cls-3" points="91.86 215.13 23.56 160.54 19.58 15.18 89.42 61.26 91.86 215.13"/><polygon class="cls-2" points="89.42 61.26 93.39 59.13 22.83 13.64 19.58 15.18 89.42 61.26"/><polygon class="cls-2" points="116.17 46.91 119.98 44.87 51.73 0 48.62 1.47 116.17 46.91"/><path class="cls-4" d="M98.39,56.45c-22.81-13.83-47.59-30-69.74-45.56,23.69,14.38,48.4,30.54,69.74,45.56Z"/><path class="cls-4" d="M103.08,53.94C80.4,40.14,55.76,24,33.74,8.49,57.29,22.83,81.86,39,103.08,53.94Z"/><path class="cls-4" d="M107.73,51.44C85.18,37.67,60.69,21.59,38.8,6.1c23.4,14.31,47.83,30.4,68.93,45.34Z"/><path class="cls-4" d="M112.35,49C89.92,35.23,65.58,19.18,43.81,3.74,67.08,18,91.37,34.06,112.35,49Z"/><path class="cls-5" d="M62.5,101.75,37.32,82.45a6.53,6.53,0,0,1-2.53-5.06L34.33,58.6c-.14-5.57,6.06-9.12,10.46-6L69.71,70.38a6.58,6.58,0,0,1,2.73,5.13l.82,20.24C73.49,101.57,67,105.2,62.5,101.75Z"/><polygon class="cls-1" points="93.39 59.13 96.31 212.19 117.56 198.1 116.17 46.91 93.39 59.13"/><path class="cls-4" d="M99.47,210.09c-.27-26.29,1-127-1.08-153.64.31,27.3-.94,128,1.08,153.64Z"/><path class="cls-4" d="M104.25,206.92c-.27-26.29,1-126.38-1.06-153,.3,27.29-1,127.32,1.06,153Z"/><path class="cls-4" d="M108.9,203.84c-.27-26.29,1-125.79-1.06-152.4.3,27.3-1,126.74,1.06,152.4Z"/><path class="cls-4" d="M113.48,200.83c-.27-26.29,1-125.94-1-152.55.3,27.3-1,126.89,1,152.55Z"/><polygon class="cls-1" points="57.78 119.66 76 116.51 45.88 77.5 26.33 79.85 57.78 119.66"/><polygon class="cls-6" points="28.83 208.78 50.13 203.02 77.59 116.24 56.88 119.82 28.83 208.78"/><polygon class="cls-7" points="28.83 208.78 0 164.31 25.53 79.94 56.88 119.82 28.83 208.78"/><polygon class="cls-6" points="56.88 119.82 59.57 119.35 27.69 79.69 25.53 79.94 56.88 119.82"/><polygon class="cls-6" points="75.01 116.68 77.59 116.24 46.93 77.37 44.86 77.62 75.01 116.68"/><path class="cls-4" d="M63,118.77C52.49,106.45,41.33,92.41,31.57,79.22,42.44,92,53.56,106.05,63,118.77Z"/><path class="cls-4" d="M66.14,118.22C55.73,105.94,44.65,92,35,78.81c10.8,12.76,21.84,26.73,31.18,39.41Z"/><path class="cls-4" d="M69.29,117.67C59,105.44,48,91.5,38.32,78.41,49,91.12,60,105,69.29,117.67Z"/><path class="cls-4" d="M72.42,117.13C62.15,104.94,51.22,91.05,41.66,78c10.65,12.67,21.54,26.55,30.76,39.13Z"/><path class="cls-8" d="M33.65,138,22.86,122a4,4,0,0,1-.49-3.39l3.34-10.9a4.11,4.11,0,0,1,7.16-1.44l10.93,15a4,4,0,0,1,.59,3.47L41,136.55A4.13,4.13,0,0,1,33.65,138Z"/><polygon class="cls-1" points="59.57 119.35 32.07 207.9 46.61 203.97 75.01 116.68 59.57 119.35"/><path class="cls-4" d="M63,118.77c-8.36,28.58-18.38,60.14-28,88.35,8.38-28.61,18.37-60.16,28-88.35Z"/><path class="cls-4" d="M66.32,118.12C58,146.7,48.1,178,38.48,206.17c8.39-28.61,18.21-59.86,27.84-88Z"/><path class="cls-4" d="M69.29,117.67c-8.36,28.59-18.14,59.44-27.76,87.65,8.39-28.61,18.13-59.46,27.76-87.65Z"/><path class="cls-4" d="M72.55,117.13c-8.36,28.59-18.38,59.19-28,87.4,8.39-28.61,18.37-59.21,28-87.4Z"/><path class="cls-5" d="M64.55,79.49A10.9,10.9,0,0,1,65,77.63l-.41,1.8Z"/><path class="cls-5" d="M65.11,77.06c0,.17-.07.33-.1.49a.11.11,0,0,0,0,.08Z"/></g></g></svg>