<svg xmlns="http://www.w3.org/2000/svg" viewBox="0 0 191.45 60.23"><defs><style>.cls-1{fill:#fdf4d7;}.cls-2{fill:#e4dfbf;}.cls-3{fill:#4c6637;}</style></defs><title>Asset 201</title><g id="Layer_2" data-name="Layer 2"><g id="Layer_1-2" data-name="Layer 1"><path class="cls-1" d="M93.47,44.93C105.07,25.46,129.64,5.37,162.69.76A96.85,96.85,0,0,1,177,0a126.76,126.76,0,0,0-13.9,1.86c-32,6.55-53.58,25-69.66,43.05Z"/><path class="cls-2" d="M93.47,44.93C105.83,27.28,132,9.08,167.2,4.89a122,122,0,0,1,15.29-.66c-5.05.38-10,.86-14.82,1.68-34.12,5.94-57.07,22.62-74.2,39Z"/><path class="cls-1" d="M93.47,44.93c12.6-14.55,39.29-29.56,75.18-33a152.74,152.74,0,0,1,15.58-.55c-5.15.32-10.21.71-15.1,1.39-34.8,4.9-58.2,18.65-75.66,32.17Z"/><path class="cls-2" d="M5.93,31.51l3.45-7.27s57-3.45,86.11,18.19l.23,4.4Z"/><path class="cls-2" d="M186.39,31.37,184.23,18S125.11,20.79,96,42.43l-.24,4.4Z"/><path class="cls-1" d="M95.75,45.33S61.43,24.44,2.66,29.66v22.2H95.75Z"/><path class="cls-1" d="M95.7,45.33S130,24.44,188.79,29.66v22.2H95.7Z"/><rect class="cls-3" y="50.28" width="191.45" height="9.96"/><rect class="cls-3" x="90.36" y="40.34" width="10.72" height="19.89" rx="4.76"/><path class="cls-2" d="M5.06,34.33C18.8,34,32.48,36,46,38.33a331.66,331.66,0,0,1,39.88,10.1c-26.53-6.6-53.41-12.76-80.8-14.1Z"/><path class="cls-2" d="M4.25,42.53c13.63-1.71,27.45-1.14,41.11-.14a333.77,333.77,0,0,1,40.69,6c-27-3.9-54.41-7.32-81.8-5.9Z"/><path class="cls-2" d="M186.39,34.41c-13.74-.34-27.42,1.63-40.92,4a331.66,331.66,0,0,0-39.88,10.1c26.53-6.6,53.41-12.76,80.8-14.1Z"/><path class="cls-2" d="M187.2,42.62c-13.63-1.72-27.45-1.15-41.11-.15a333.77,333.77,0,0,0-40.69,6c27-3.9,54.41-7.32,81.8-5.89Z"/></g></g></svg>