<svg xmlns="http://www.w3.org/2000/svg" viewBox="0 0 277.09 190.47"><defs><style>.cls-1{fill:#f6352c;}.cls-2{fill:#e4dfbf;}.cls-3{fill:#fdf4d7;}.cls-4{fill:#42c9b8;}</style></defs><title>Asset 51</title><g id="Layer_2" data-name="Layer 2"><g id="Layer_1-2" data-name="Layer 1"><path class="cls-1" d="M21.27,166.68l84.22-5.06a10,10,0,0,0,4.74,5.06c3.54,1.76,11.35-2.53,11.35-2.53l72.63,26.32,82.88-79.68L182.14,97.27s-3.78-4-12.93-1.3l-74.36-6.1Z"/><path class="cls-2" d="M29.24,161.42s60.56-8.77,77.83-3.31a10.72,10.72,0,0,0,5.92,4.48c4,1.17,7.57-2.05,7.57-2.05s59.26,14.33,72,24l76.54-76.13-2.37-15s-30.52-19.89-83-1.76c0,0-36.9-17.94-73.81-9.75Z"/><path class="cls-3" d="M36.41,150.31S91,138.35,115,160.45c0,0,34.06-17.68,62.45-8.32l74.13-78.77s-34.38-4.42-69.71,16.12c0,0-24.92-26.52-77.91-12.22Z"/><path class="cls-3" d="M266.76,93.38c-18.59,19.65-39.87,41.12-59.15,60.51l-20.06,19.93-.52.51a184.45,184.45,0,0,0-32.44-11.06c-11.05-2.53-22.57-4-34-2.73,11.4-1.82,23.2-.67,34.38,1.68a168.56,168.56,0,0,1,32.33,10.4l-1.22.18,19.91-20c19.43-19.32,40.92-40.57,60.8-59.39Z"/><path class="cls-3" d="M267.77,99.78C251,118.16,229.4,140.69,212,158.84L193,178.3l-.47.49c-11.14-3.92-22.43-7.6-33.83-10.95-11.22-3.11-22.52-6.47-34.37-7.39,11.92.38,23.49,3.42,34.8,6.33s22.49,6.46,33.49,10.27l-1.16.24,18.82-19.54c17.61-18.08,39.44-40.34,57.48-58Z"/><path class="cls-3" d="M45.66,148.74q-4.32,4.69-8.78,9.3l-.61-.81a225.36,225.36,0,0,1,38.46-4.83c12.52-.1,27.49-.27,37.07,7.4-16-10.58-55.77-4.3-75.25-1.6l-1.78.3c3.54-3.32,7.21-6.56,10.89-9.76Z"/><path class="cls-2" d="M181.83,89.48c-21,23.25-44.9,48.59-66.87,71,21-23.27,44.9-48.62,66.87-71Z"/><path class="cls-2" d="M106.26,81.89,86.91,103s39.27-9.31,64,11.93L175.2,89.48S146.84,71,106.26,81.89Z"/><path class="cls-2" d="M146.21,121.09C123.54,100.28,84.36,108.62,84,108.71l-.21-1c.4-.09,40.08-8.54,63.14,12.63Z"/><path class="cls-2" d="M140.13,126.56c-25.1-19.35-60.2-12.49-60.55-12.42l-.2-1c.36-.07,35.89-7,61.36,12.6Z"/><path class="cls-2" d="M135.67,132.5C111,113.44,73.75,120,73.38,120.09l-.18-1c.37-.07,38.05-6.73,63.08,12.61Z"/><path class="cls-2" d="M128.42,138.62c-22.66-20.82-61.85-12.48-62.24-12.39l-.22-1c.4-.09,40.09-8.54,63.14,12.63Z"/><path class="cls-2" d="M158.78,118.41l-.32-.94a106.06,106.06,0,0,1,47.37-3l-.17,1A105.32,105.32,0,0,0,158.78,118.41Z"/><path class="cls-2" d="M165.76,110.87l-.33-1a106.32,106.32,0,0,1,47.37-3l-.16,1A105.21,105.21,0,0,0,165.76,110.87Z"/><path class="cls-2" d="M172.66,104.07l-.33-.94a106.23,106.23,0,0,1,47.37-3l-.16,1A105.18,105.18,0,0,0,172.66,104.07Z"/><path class="cls-4" d="M160.59,58.84l-52.87-3.19a6.25,6.25,0,0,1-3,3.19c-2.23,1.1-7.13-1.59-7.13-1.59L52,73.77l-52-50,59.6-8.49s2.38-2.52,8.12-.81l46.68-3.84Z"/><path class="cls-2" d="M155.59,55.53s-38-5.51-48.86-2.08A6.77,6.77,0,0,1,103,56.27C100.49,57,98.27,55,98.27,55S61.06,64,53,70L5,22.24l1.49-9.42S25.64.33,58.61,11.72c0,0,23.17-11.26,46.34-6.12Z"/><path class="cls-3" d="M151.09,48.56s-34.26-7.51-49.31,6.36c0,0-21.38-11.1-39.21-5.22L16,.25S37.62-2.52,59.8,10.37c0,0,15.64-16.65,48.91-7.67Z"/><path class="cls-3" d="M6.49,12.82c11.67,12.33,25,25.81,37.13,38L56.21,63.32l.33.32a115.73,115.73,0,0,1,20.36-7c6.93-1.58,14.17-2.53,21.37-1.71C91.11,53.84,83.7,54.56,76.68,56a106.2,106.2,0,0,0-20.3,6.53l.77.12L44.65,50.1C32.46,38,19,24.64,6.49,12.82Z"/><path class="cls-3" d="M5.85,16.84c10.55,11.54,24.09,25.68,35,37.07L52.78,66.13l.3.3c7-2.45,14.08-4.77,21.24-6.87s14.13-4.06,21.57-4.64c-7.48.24-14.74,2.15-21.85,4S59.92,63,53,65.35l.73.15L41.93,53.23C30.88,41.88,17.18,27.9,5.85,16.84Z"/><path class="cls-3" d="M145.28,47.57c1.81,2,3.64,3.92,5.52,5.84l.38-.51a142,142,0,0,0-24.15-3c-7.86-.07-17.25-.17-23.27,4.64,10-6.64,35-2.7,47.24-1l1.12.19c-2.23-2.08-4.53-4.12-6.84-6.13Z"/><path class="cls-2" d="M59.8,10.37C73,25,88,40.88,101.78,54.92c-13.2-14.6-28.19-30.52-42-44.55Z"/><path class="cls-2" d="M107.24,5.61l12.15,13.24S94.73,13,79.21,26.34L64,10.37S81.77-1.24,107.24,5.61Z"/><path class="cls-2" d="M82.16,30.22c14.23-13.07,38.83-7.83,39.08-7.78l.13-.61c-.25-.06-25.16-5.36-39.63,7.93Z"/><path class="cls-2" d="M86,33.65c15.76-12.15,37.79-7.84,38-7.8l.12-.61c-.22,0-22.53-4.41-38.52,7.91Z"/><path class="cls-2" d="M88.78,37.38c15.49-12,38.87-7.84,39.1-7.79L128,29c-.24,0-23.89-4.23-39.61,7.91Z"/><path class="cls-2" d="M93.33,41.22c14.23-13.07,38.82-7.83,39.07-7.78l.14-.61c-.25-.06-25.17-5.36-39.64,7.93Z"/><path class="cls-2" d="M74.27,28.53l.2-.59A66.53,66.53,0,0,0,44.73,26l.11.61A66.23,66.23,0,0,1,74.27,28.53Z"/><path class="cls-2" d="M69.89,23.8l.21-.59a66.67,66.67,0,0,0-29.74-1.92l.1.62A66,66,0,0,1,69.89,23.8Z"/><path class="cls-2" d="M65.56,19.53l.21-.59A66.59,66.59,0,0,0,36,17l.1.61A66.2,66.2,0,0,1,65.56,19.53Z"/></g></g></svg>