<svg xmlns="http://www.w3.org/2000/svg" viewBox="0 0 226.32 144.24"><defs><style>.cls-1{fill:#903c7a;}.cls-2{fill:#d23757;}.cls-3{fill:#fdf4d7;}.cls-4{fill:#c9e9f4;}.cls-5{fill:#fbc628;}.cls-6{fill:#e4dfbf;}.cls-7{fill:#f6352c;}.cls-8{fill:#91ba80;}.cls-9{fill:#309084;}.cls-10{fill:#42c9b8;}.cls-11{fill:#4c6637;}</style></defs><title>Asset 131</title><g id="Layer_2" data-name="Layer 2"><g id="Layer_1-2" data-name="Layer 1"><polygon class="cls-1" points="0 136.65 27.77 144.24 27.77 0 0 7.59 0 136.65"/><polygon class="cls-2" points="27.77 144.24 108.41 129.73 108.41 14.51 27.77 0 27.77 144.24"/><rect class="cls-3" x="39.55" y="68.94" width="59.88" height="0.92"/><rect class="cls-3" x="39.54" y="77.17" width="59.91" height="0.92" transform="translate(-2.38 2.2) rotate(-1.78)"/><rect class="cls-3" x="39.51" y="85.42" width="59.96" height="0.91" transform="translate(-4.48 3.82) rotate(-3.05)"/><rect class="cls-3" x="39.43" y="94.58" width="60.12" height="0.91" transform="translate(-8.24 6.61) rotate(-5.14)"/><path class="cls-4" d="M22.43,5.72s-1,13.86-12.56,14.56c-8.79.53-7.59-9-7.59-9Z"/><path class="cls-4" d="M22.43,138.72s-1-13.87-12.56-14.57c-8.79-.53-7.59,9.06-7.59,9.06Z"/><path class="cls-4" d="M9.12,131l5.29,1.78c1.6.54,3.14-1.17,3.14-3.47V18.4c0-2.31-1.54-4-3.14-3.48L9.12,16.7c-2.23.75-3.8,3.54-3.8,6.75V124.29C5.32,127.5,6.89,130.29,9.12,131Z"/><polygon class="cls-4" points="98.31 53.94 42.21 53.34 42.21 17.85 98.41 21.93 98.31 53.94"/><path class="cls-5" d="M226.21,43.41h.11v2.84H222.9L223,72.12h3.36V75H110.15a15.78,15.78,0,0,1,0-31.56Z"/><path class="cls-3" d="M223.31,46.26h.1V72.12H109.86a12.54,12.54,0,0,1-8.93-3.78,13.27,13.27,0,0,1-2-2.68c-.22-.4-.42-.8-.6-1.22a13.23,13.23,0,0,1-1.09-5.25,11.9,11.9,0,0,1,.07-1.34c0-.41.1-.82.18-1.22a13.13,13.13,0,0,1,.84-2.69,12.38,12.38,0,0,1,.6-1.21,13.61,13.61,0,0,1,2-2.68h0a13.37,13.37,0,0,1,1.38-1.22,12.37,12.37,0,0,1,7.55-2.56Z"/><path class="cls-6" d="M223.41,48.82V50H100.93a13.37,13.37,0,0,1,1.38-1.22Z"/><path class="cls-6" d="M223.41,52.73v1.21H98.31a12.38,12.38,0,0,1,.6-1.21Z"/><path class="cls-6" d="M223.41,56.63v1.22H97.29c0-.41.1-.82.18-1.22Z"/><path class="cls-6" d="M223.41,60.54v1.21H97.47a12.16,12.16,0,0,1-.18-1.21Z"/><path class="cls-6" d="M223.41,64.44v1.22H98.91c-.22-.4-.42-.8-.6-1.22Z"/><path class="cls-6" d="M223.41,68.34v1.22H102.31a12.29,12.29,0,0,1-1.38-1.22Z"/><path class="cls-7" d="M195.55,75h.1v2.85h-4.11l-.06,25.85h4.17v2.85H79.49a15.78,15.78,0,1,1,0-31.55Z"/><path class="cls-3" d="M192.66,77.82h.1v25.85H79.2a12.4,12.4,0,0,1-7.56-2.56,13,13,0,0,1-1.37-1.21,12.38,12.38,0,0,1-2-2.69A10.68,10.68,0,0,1,67.64,96a13.47,13.47,0,0,1-.84-2.68c-.07-.4-.13-.81-.18-1.22s-.06-.89-.06-1.34,0-.9.06-1.35.11-.81.18-1.21a13.36,13.36,0,0,1,.84-2.69,11.57,11.57,0,0,1,.61-1.22,12.87,12.87,0,0,1,2-2.68h0a13.13,13.13,0,0,1,1.37-1.22,12.4,12.4,0,0,1,7.56-2.56Z"/><path class="cls-6" d="M192.76,80.38V81.6H70.27a13.13,13.13,0,0,1,1.37-1.22Z"/><path class="cls-6" d="M192.76,84.28V85.5H67.64a11.57,11.57,0,0,1,.61-1.22Z"/><path class="cls-6" d="M192.76,88.19V89.4H66.62c0-.41.11-.81.18-1.21Z"/><path class="cls-6" d="M192.76,92.09v1.22H66.8c-.07-.4-.13-.81-.18-1.22Z"/><path class="cls-6" d="M192.76,96v1.22H68.25A10.68,10.68,0,0,1,67.64,96Z"/><path class="cls-6" d="M192.76,99.9v1.21H71.64a13,13,0,0,1-1.37-1.21Z"/><rect class="cls-8" x="80.14" y="21.93" width="142.07" height="21.49" rx="3.04"/><rect class="cls-9" x="91.74" y="21.93" width="6.67" height="21.49"/><rect class="cls-5" x="103.73" y="21.93" width="6.67" height="21.49"/><rect class="cls-4" x="115.71" y="21.93" width="6.67" height="21.49"/><path class="cls-5" d="M214.48,33.33c0,3.42-19.69,6.19-44,6.19s-44-2.77-44-6.19,19.69-6.18,44-6.18S214.48,29.92,214.48,33.33Z"/><rect class="cls-10" x="69.23" y="106.92" width="150.47" height="31.54" rx="4.4"/><rect class="cls-11" x="78.98" y="113.59" width="18.94" height="18.94"/><rect class="cls-11" x="189.09" y="113.59" width="6.57" height="18.94"/><rect class="cls-11" x="200.46" y="113.59" width="6.57" height="18.94"/><rect class="cls-5" x="102.78" y="113.59" width="81.52" height="18.94"/></g></g></svg>